<?xml version="1.0" standalone="no"?>
<!DOCTYPE svg PUBLIC "-//W3C//DTD SVG 20010904//EN"
 "http://www.w3.org/TR/2001/REC-SVG-20010904/DTD/svg10.dtd">
<svg version="1.0" xmlns="http://www.w3.org/2000/svg"
 width="200.000000pt" height="200.000000pt" viewBox="0 0 200.000000 200.000000"
 preserveAspectRatio="xMidYMid meet">
<metadata>
Created by potrace 1.14, written by Peter Selinger 2001-2017
</metadata>
<g transform="translate(0.000000,200.000000) scale(0.100000,-0.100000)"
fill="#000000" stroke="none">
<path d="M946 1829 c-164 -27 -320 -121 -420 -252 -55 -74 -81 -117 -70 -117
3 0 19 9 35 21 134 95 377 138 539 95 155 -41 237 -105 306 -241 58 -112 70
-155 99 -340 l7 -39 19 24 c34 44 76 143 93 217 57 257 -52 471 -299 589 -101
48 -200 62 -309 43z"/>
<path d="M526 1398 c-28 -28 -77 -73 -108 -100 -97 -82 -186 -227 -217 -352
-29 -119 -8 -293 49 -406 87 -174 319 -292 567 -289 49 0 55 2 38 12 -56 34
-138 125 -168 186 -30 62 -32 72 -32 176 0 101 2 114 28 163 46 87 94 128 184
154 108 31 162 83 192 184 12 39 21 76 21 81 0 21 -29 33 -105 44 -142 19
-227 63 -308 155 -52 60 -76 58 -141 -8z m199 -90 c23 -10 26 -16 20 -42 -18
-83 -18 -106 0 -126 28 -31 55 -24 105 24 44 44 58 49 111 47 20 -1 29 -8 33
-25 3 -14 15 -28 26 -31 26 -8 25 -24 -5 -66 -104 -142 -312 -141 -385 1 -33
65 -24 160 22 218 13 15 40 15 73 0z"/>
<path d="M1651 1149 c-38 -176 -171 -375 -315 -468 -112 -73 -158 -85 -336
-86 -85 0 -179 4 -209 8 l-54 8 7 -33 c9 -48 72 -133 135 -185 115 -94 223
-128 371 -120 263 14 476 173 541 402 8 30 14 93 13 155 0 87 -5 119 -27 183
-27 79 -89 187 -106 187 -5 0 -14 -23 -20 -51z"/>
</g>
</svg>
