<?xml version="1.0" encoding="utf-8"?>
<!-- Generator: Adobe Illustrator 27.7.0, SVG Export Plug-In . SVG Version: 6.00 Build 0)  -->
<svg version="1.1" id="Layer_2" xmlns="http://www.w3.org/2000/svg" xmlns:xlink="http://www.w3.org/1999/xlink" x="0px" y="0px"
	 viewBox="0 0 841.9 595.3" style="enable-background:new 0 0 841.9 595.3;" xml:space="preserve">
<style type="text/css">
	.st0{fill:#FFCF2D;}
	.st1{fill:#FFFFFF;}
	.st2{fill:#868686;}
	.st3{fill:#D9D9D9;}
	.st4{fill:#B1B1B1;}
	.st5{fill:#6F6F6E;}
	.st6{fill:#9C9B9B;}
	.st7{fill:#C6C6C5;}
	.st8{fill:#575756;}
	.st9{fill:#E20613;}
	.st10{fill:#E84E1B;}
	.st11{fill:#1D70B7;}
	.st12{fill:#C99D66;}
	.st13{fill:#009540;}
	.st14{fill:#B17F49;}
	.st15{fill:#98CDE2;}
	.st16{fill:#35A8E0;}
	.st17{fill:#3C3C3B;}
	.st18{fill:#E5007E;}
	.st19{fill:#BD1622;}
</style>
<g>
	<g>
		<path class="st4" d="M359.2,468.6c-1.6,3.1-2.3,7.1-2.1,11.8c0,0.6,0.2,1.1,0.6,1.5c0,0,0,0,0,0c-5.4-1.2-10.3-4.7-10.4-4.8
			c-0.7-0.5-1.7-0.6-2.5-0.3l-72.7,31.6c-1.2,0.5-1.8,1.9-1.3,3.1c2.2,6,5.2,17.7,0.1,28.2c-4.3,9-16.4,14.7-28.8,13.7
			c-7.8-0.6-12.1-3.8-13.9-5.6l4.8-6c7.4,2.1,16-0.3,22.3-6.4c2.9-2.8,4.4-7.2,4.4-12.5c0-5.6-1.9-11.3-4.4-13.7
			c-3.9-3.8-14.2-9-24.6-2c-7.5,5-9,13.4-9.3,17.5l-8.4,0.9c-1.3-4.9-1-13,2.3-20.3c2.3-5.2,7-11.9,16.1-14.9
			c18.1-5.9,26.2,2.6,26.5,3c0.7,0.8,1.9,1.1,2.9,0.6l76.8-34.9c1.2-0.5,1.7-1.8,1.4-3c-1.8-5.8,1.6-14.6,5.8-20.2
			c2.8-3.7,9.8-5.3,13.6-5.8l5.2,8.6c-7.9,2.2-11.1,6.9-12.3,9.7c-2,4.6-1.4,10.1,1.5,14.2C354.8,465.3,357.1,467.2,359.2,468.6z"/>
		<path d="M356.1,450.4c-1.3,3-0.9,6.6,1,9.4c1.5,2.2,3.4,3.8,5.3,4.9c-1.2,1.1-2.3,2.4-3.1,4c-2.2-1.4-4.4-3.3-6.2-6
			c-2.9-4.2-3.5-9.6-1.5-14.2c1.2-2.8,4.4-7.5,12.3-9.7l-5.2-8.6c-3.8,0.5-10.8,2.1-13.6,5.8c-4.2,5.7-7.6,14.4-5.8,20.2
			c0.4,1.2-0.2,2.5-1.4,3L261,494.2c-1,0.5-2.2,0.2-2.9-0.6c-0.3-0.4-8.4-8.9-26.5-3c-9.1,3-13.8,9.7-16.1,14.9
			c-3.3,7.4-3.7,15.5-2.3,20.3l8.4-0.9c0.3-4.1,1.8-12.5,9.3-17.5c10.4-7,20.6-1.8,24.6,2c2.6,2.5,4.4,8.1,4.4,13.7
			c0,5.3-1.5,9.7-4.4,12.5c-6.3,6.1-14.9,8.5-22.3,6.4l-4.8,6c1.8,1.8,6.1,5,13.9,5.6c12.3,1,24.4-4.7,28.8-13.7
			c5.1-10.5,2.1-22.2-0.1-28.2c-0.5-1.2,0.1-2.6,1.3-3.1l72.7-31.6c0.8-0.3,1.8-0.2,2.5,0.3c0.1,0.1,5,3.6,10.4,4.8
			c0.5,0.6,2.5,2.3,8.1,3.8c-0.3,0.8-1,1.3-1.9,1.5c-7.4,1.2-15.4-3.2-18.3-5.1l-69.3,30.1c2.3,7.2,4.4,18.9-0.9,29.9
			c-4.9,10.1-17.1,16.6-30.4,16.6c-1.1,0-2.2,0-3.3-0.1c-13.6-1.1-18.7-8.9-18.9-9.2c-0.6-0.9-0.5-2.1,0.2-2.9l7.2-8.9
			c0.7-0.9,1.8-1.2,2.8-0.8c6,2.3,13.4,0.5,18.8-4.8c1.9-1.8,2.9-5,2.9-8.9c0-4.6-1.5-8.8-2.9-10.1c-2.9-2.8-10.5-6.7-18.3-1.4
			c-7.6,5.1-7.1,15.3-7.1,15.4c0.1,1.3-0.9,2.5-2.2,2.6l-12.5,1.4c-1.1,0.1-2.1-0.5-2.6-1.5c-2.4-5.4-2.8-15.9,1.8-26.1
			c2.7-6.1,8.3-14.1,19.2-17.6c17.1-5.6,26.9,0.3,30.4,3.1l73.5-33.4c-1.1-7.5,2.7-16.7,7.1-22.5c3.2-4.3,9.4-6.3,13.8-7.2
			c3.3,3.6,7.2,7.2,12.2,11.2l1.7,5.9c-0.2,0.1-0.3,0.1-0.5,0.1C362,443.8,357.7,446.5,356.1,450.4z"/>
	</g>
	<g>
		<path class="st10" d="M428.9,110.9c-2.6-1.1-5.3-1.7-7.8-1.8c-5.7-0.3-11.3,4.2-15.2,8.4c-1.3,1.4-2.5,2.8-3.4,4
			c-0.1,0.1-0.2,0.2-0.2,0.3c-3.3,1.2-19.5,6.2-45.3,3.3c-6.1-0.8-11.2-1.7-14.5-2.3c-0.1,0-0.2,0-0.3,0c-1.1-0.2-2.3-0.5-3.5-0.8
			c-2-0.5-4-1-6.1-1.5c0-0.1,0.1-0.1,0.1-0.2c0.4-0.6,1.1-2,2.4-3.9c1.1-1.7,2.6-3.9,4.4-6.3c9.2-12.5,27.1-32.4,52.2-38.7
			c0.5-0.1,0.9-0.4,1.2-0.7c8.1,2.3,14.8,6,20.2,11.1C421.3,89.5,425.6,99.8,428.9,110.9z"/>
		<path class="st10" d="M388,130.2c-6,4.8-17.1,11-34.1,11.1h-0.9c-20.8,0-34.8-5-45.1-8.6c-0.9-0.3-1.8-0.6-2.6-0.9
			c-2-0.7-3.8-1.3-5.6-1.8c-0.7-0.2-1.4-0.4-2.1-0.6c-4.3-1-8.4-1.7-11.6-2.1c-3-0.5-6.6-1-7.8-1.6c0.6-1.8,6.4-9.2,25.5-10.1
			c3.6,1.6,7.2,3,10.6,4.3c2.2,0.8,4.3,1.5,6.4,2.2c0.8,0.3,1.5,0.5,2.3,0.8c0.8,0.2,1.5,0.5,2.3,0.7c0.8,0.2,1.5,0.5,2.2,0.7
			c0.7,0.2,1.3,0.4,2,0.6c0.1,0,0.2,0,0.3,0.1c0.7,0.2,1.4,0.4,2,0.6c2.2,0.6,4.3,1.1,6.4,1.6c0,0,0,0,0.1,0c0.1,0,0.2,0,0.3,0.1h0
			c0,0,0.1,0,0.1,0c0,0,0,0,0.1,0c0,0,0.1,0,0.1,0c0,0,0,0,0,0h0c0.4,0.1,0.8,0.2,1.1,0.2c9.2,2,17.5,3.1,24.9,3.5
			C372.2,131.3,380.2,131.3,388,130.2z"/>
		<path class="st10" d="M377,68c-4.2,0.9-8.9,2.3-13.8,4.4c-12.4,5.4-27.8,16.8-33.9,40.5c-0.5,1.8-0.9,3.7-1.2,5.7c0,0,0,0.1,0,0.1
			c-0.1,0-0.3,0.1-0.4,0.2c-2.3-0.7-4.7-1.5-7.1-2.3c-4.4-1.5-9-3.3-13.7-5.3v-0.1c0.1-7.6,3.5-39.3,52.1-43.1
			C365.4,67.7,371.4,67.6,377,68z"/>
		<path class="st0" d="M398.7,473.7c-4.4,0.3-9,1.5-12.9,4.3c-1.8,1.3-3.3,2.8-4.5,4.5c-6.4-0.2-10.9-0.9-13.9-1.6
			c-2.4-0.6-3.8-1.2-4.7-1.7c-0.2-0.1-0.3-0.2-0.4-0.2c0-3.3,0.5-6,1.6-8.1c0.6-1.2,1.4-2.2,2.4-3c0.5-0.4,1-0.7,1.5-1
			c6-3.1,15.1-0.4,15.2-0.4c1.3,0.4,2.7-0.3,3.1-1.6c0.4-1.3-0.3-2.7-1.6-3.1c-0.2-0.1-2.3-0.7-5.2-1.1l-5.5-18.9
			c5.6,4,12.3,8.3,20.1,13C395.5,462.4,397.3,469.5,398.7,473.7z"/>
		<path class="st10" d="M368.9,75.5c-13.9,8.3-24.5,19.7-31.3,28.7c5.5-12.4,14.7-21.5,27.5-27.1C366.3,76.5,367.6,76,368.9,75.5z"
			/>
		<path class="st0" d="M597.6,475.6c-25.4,31.2-29.9,31-42.1,30.4c-2.3-0.1-4.9-0.2-7.9-0.2c-3.6,0.1-8,0.2-12.8,0.3
			c-17.1,0.4-45.2,1.1-50.6,0.2c-0.5-2.1,0.5-9.1,5.6-15.4c2.5-3.1,6.1-6.1,11.3-7.9c0,0,0,0,0.1,0c0.2,0,0.3-0.1,0.5-0.2
			c5-1.6,11.3-2.1,19.4-0.3c2.3,0.7,3.8,1,4,1c1.3,0.2,2.6-0.6,2.8-1.9c0.3-1.3-0.5-2.6-1.8-2.9c-1.2-0.3-2.3-0.6-3.5-0.9
			c-0.5-0.2-1-0.3-1.6-0.5c-0.3-0.1-0.7-0.2-1.1-0.4c-0.2-0.1-0.4-0.2-0.6-0.2c0,0-0.1,0-0.2-0.1c-0.2-0.1-0.5-0.2-0.8-0.3
			c-0.6-0.3-1.3-0.6-2-0.9c-0.3-0.2-0.7-0.3-1-0.5c-0.4-0.2-0.7-0.4-1.1-0.6c-0.1,0-0.1-0.1-0.2-0.1c-0.3-0.2-0.6-0.3-0.9-0.5
			c-0.3-0.2-0.7-0.4-1-0.6c-0.6-0.4-1.1-0.7-1.7-1.1c-0.2-0.2-0.4-0.3-0.7-0.5c-1.1-0.8-2.3-1.7-3.4-2.6c-0.4-0.4-0.8-0.7-1.2-1.1
			c-0.7-0.6-1.3-1.2-2-1.9c-0.2-0.2-0.4-0.4-0.6-0.7c-0.2-0.2-0.3-0.3-0.4-0.5c-0.3-0.3-0.5-0.6-0.8-0.9c-0.8-0.9-1.5-1.9-2.2-2.9
			c-9.8-13.8-12.4-33.3-7.9-58c0.2-1.4-0.7-2.7-2-2.9c-1.4-0.2-2.7,0.7-2.9,2c-4.4,24.3-2.1,44,6.8,58.7c-6.6-0.4-18.3-0.2-29.9,4.1
			c-12.2,4.4-21.8,4.4-25.7,4.1c0.3-6.9,0.6-12.8,0.7-15.3c0-1.4-1-2.5-2.4-2.6c-1.4,0-2.5,1.1-2.6,2.4c-0.2,6.7-1.9,39.4-2.4,47.7
			c-20.8,3.9-43,0.1-49.6-1.2c0.3-8.4,2.8-14.3,7.5-17.7c9.3-6.7,24.5-1.7,24.6-1.6c1.3,0.4,2.7-0.2,3.2-1.6
			c0.5-1.3-0.2-2.7-1.5-3.2c-0.4-0.1-5-1.7-10.9-2.1c-1.3-3.5-3.4-12-5.6-21c-3.3-13.8-6.5-28.9-6.6-29.1c-0.3-1.3-1.6-2.2-3-1.9
			c-1.4,0.3-2.2,1.6-1.9,3c0.2,0.9,2.6,11.8,5.3,23.5c-42.9-26.3-44.9-38.9-49.1-65.3l-0.5-3c-3.4-21,14-59.7,25.5-85.2
			c4.6-10.3,8.3-18.5,9.4-22.8c3.1-12.5,1.1-30.7,0.3-36.6c15.5-7.3,31.9-20.2,47.7-42c0.8-1.1,0.6-2.7-0.6-3.5
			c-1.1-0.8-2.7-0.5-3.5,0.6c-15.6,21.7-31.9,34.2-47.1,41c-0.2,0.1-0.4,0.1-0.6,0.3c-20.1,8.9-38.1,8-49.9,5.6
			c-24.3-5-42.1-20.1-44.7-31.3c-0.7-3.2-1.2-6.3-1.5-9.6c2.8,3.5,7.2,7,14.1,8.5c1,0.1,1.9,0.3,2.8,0.5c0.4,3.9,2,10.5,7.8,18.8
			c0.5,0.7,1.3,1.1,2.1,1.1c0.5,0,1-0.2,1.4-0.5c1.1-0.8,1.4-2.3,0.6-3.5c-4.8-6.9-6.3-12.3-6.8-15.6c15.7,0.6,25.7-5.4,29.5-8.3
			c4.1-3.2,8-9.8,3.3-17c-4.6-7.2-18.7-10.2-27.6-10.4c-14.3-0.2-22.2,2.7-26.5,6.2c0.8-4.6,2-9.2,3.7-13.5c1.3-3.4,2.9-6.6,4.7-9.7
			c0.8,4.2,3.4,7.4,6.8,7.8c4.6,0.6,9-4.1,9.8-10.5c0.7-5.5-1.6-10.4-5.2-12c0.9-0.9,1.8-1.8,2.8-2.6c1.7,0.5,3.5,1.2,5.4,1.9
			c8.5,3,19.5,6.9,34.7,8.3c-2.3,2.2-4,5.5-4.4,9.2c-0.9,7.5,3.3,14.1,9.3,14.9c6.1,0.7,11.7-4.7,12.7-12.2
			c0.6-4.4-0.7-8.6-3.1-11.4c25.9-0.7,38.7-14.2,41.6-17.8c1.6-0.4,3-0.7,4.1-1.1c0.1,0,0.1,0.1,0.2,0.1c1.1,0.8,2.7,0.5,3.5-0.7
			c0.3-0.4,0.7-1,1.1-1.5c0,0,0.1-0.1,0.1-0.1c3.1-4.2,9.7-11.5,14.8-11.2c0.2,0,0.4,0,0.6,0c0.2,0,0.4,0,0.6,0.1
			c0.2,0,0.4,0.1,0.6,0.1c0.2,0,0.4,0.1,0.7,0.1c0.2,0,0.4,0.1,0.6,0.1c0.2,0,0.4,0.1,0.7,0.2c0.2,0.1,0.4,0.1,0.7,0.2
			c0.2,0.1,0.5,0.2,0.7,0.2c0.2,0.1,0.5,0.2,0.7,0.3c0.8,0.3,1.5,0.6,2.3,1c0.4,0.2,0.8,0.4,1.2,0.7c0.3,0.2,0.6,0.4,0.9,0.5
			c0.1,0.1,0.2,0.1,0.3,0.2c0.1,0.1,0.2,0.2,0.3,0.2c0,0,0,0,0,0c0,0,0,0,0,0c0.3,0.2,0.5,0.4,0.8,0.6c0,0,0.1,0,0.1,0.1
			c0.2,0.1,0.3,0.3,0.5,0.4c0.3,0.2,0.6,0.5,0.9,0.8c0.2,0.2,0.3,0.3,0.5,0.5c0.3,0.3,0.6,0.6,0.9,1c0.1,0.2,0.3,0.3,0.4,0.5
			c0.1,0.1,0.2,0.2,0.3,0.4c0.2,0.2,0.3,0.4,0.5,0.6c0.2,0.3,0.4,0.5,0.6,0.8c0.2,0.3,0.4,0.7,0.6,1c0.1,0.2,0.2,0.4,0.3,0.6
			c0.2,0.4,0.4,0.8,0.6,1.2c0.1,0.1,0.1,0.2,0.2,0.4c0,0.1,0.1,0.2,0.1,0.3c0.1,0.2,0.2,0.5,0.3,0.7c0,0,0,0.1,0,0.1
			c0.2,0.4,0.3,0.8,0.5,1.2c0.1,0.2,0.2,0.5,0.2,0.8c0.1,0.3,0.2,0.5,0.3,0.8c0.3,0.9,0.5,1.8,0.7,2.8c0.1,0.5,0.2,0.9,0.2,1.4
			c2.2,13.5-2.1,15.7-3.7,16.5l-0.2,0.1c-0.1,0-0.2,0.1-0.2,0.1c-0.2,0.1-0.4,0.2-0.6,0.2c-0.1,0-0.2,0.1-0.3,0.1
			c-0.2,0.1-0.3,0.2-0.5,0.2c-0.2,0.1-0.4,0.2-0.6,0.2c-0.1,0-0.3,0.1-0.4,0.2c-0.4,0.1-0.7,0.2-1.1,0.4c-0.3,0.1-0.6,0.2-0.8,0.3
			c-0.1,0-0.2,0.1-0.4,0.1c-0.2,0-0.3,0.1-0.5,0.1c-0.3,0.1-0.7,0.2-1.1,0.3c-0.3,0.1-0.7,0.2-1.1,0.2c-0.4,0.1-0.9,0.2-1.3,0.3
			c-0.9,0.2-1.8,0.3-2.7,0.4c-0.3,0-0.6,0.1-0.9,0.1c-0.8,0.1-1.6,0.2-2.4,0.2h-0.2c0,0-0.1,0-0.1,0h-0.2c-1.3,0-2.6,0-3.8-0.2
			c-1.4-0.2-2.6,0.8-2.8,2.1c-0.2,1.4,0.8,2.6,2.1,2.8c1.2,0.2,2.4,0.2,3.7,0.2c2.7,3.4,12.4,16.4,16.1,30.6
			c3.2,12.6,6.9,46.9,10.1,77.1c1.2,11,2.3,21.3,3.3,30.2c4,34.9,15.6,50.6,37.5,51.1c5.5,0.1,12.3-1.2,20-2.7
			c20.7-4.1,49.1-9.6,74.4,10.4c17.9,14.1,29.6,35.8,32.2,59.3C617,438,611,459.2,597.6,475.6z"/>
		<path class="st0" d="M496.8,465.8c-2.4-0.3-8.9-0.8-16.8,0.1c-0.9,2.4-2.6,7.6-3.5,13.7c3.1,0.7,10.5,1.6,23.5-1.5
			c2.6-0.8,5.4-1.4,8.5-1.6C504.6,474,500.5,470.5,496.8,465.8z"/>
		<path d="M682.3,138.1c-0.8-1-2.1-1.2-3.2-0.6c-36,19.9-60.6,57.8-64.3,99.1c-1.9,20.6,4.7,39.8,11.1,58.4l1.1,3.2
			c0.9,2.7,1.9,5.4,3,8.3c5.2,14.3,11.1,30.4,8.2,44.5c-4.2,20-19.1,33.3-25.4,38.2c-6-14.3-15.3-27-27.3-36.5
			c-27.1-21.5-56.8-15.6-78.5-11.4c-7.5,1.5-13.9,2.8-19,2.6c-18.9-0.4-29-14.8-32.7-46.6c-1-8.8-2.1-19.2-3.3-30.2
			c-3.2-30.4-6.9-64.9-10.2-77.8c-3.3-12.7-10.8-24.1-14.9-29.8c5.2-0.7,10-2.3,12.6-3.6l0.2-0.1c3.9-2,8.9-6.4,6.4-21.7
			c-1.4-9-5.7-15.5-10.9-19.6c-3.9-13.6-8.3-26.5-18.7-36.5c-12.6-12-31.6-16.9-58-14.9c-30.8,2.3-44.6,15.7-50.7,26.6
			c-4.9,8.6-5.9,16.9-6,20.9c-16.9,1.2-23.9,7.4-26.2,10c-1.7,2-2.5,4.1-2.3,5.8c0.5,4,5.1,4.7,12.1,5.7c3,0.5,6.4,1,10,1.8
			c-22.3,21.9-26.2,50.4-21.2,72.8c2.9,13,21.9,29.6,48.6,35c4.8,1,10.7,1.7,17.2,1.7c9.7,0,20.9-1.6,33-6.5
			c0.8,6.8,2.3,22.6-0.4,33.3c-1,3.9-4.7,12.3-9.1,22c-11.7,26.1-29.4,65.6-25.9,88l0.5,3.1c2.7,17,4.6,28.9,16.7,42.2
			c3.3,3.6,7.2,7.2,12.2,11.2l1.7,5.9l5.1,17.7c-3.6,0.1-7.6,1-10.8,3.5c-0.2,0.2-0.5,0.4-0.7,0.6c-1.2,1.1-2.3,2.4-3.1,4
			c-1.6,3.1-2.3,7.1-2.1,11.8c0,0.6,0.2,1.1,0.6,1.5c0,0,0,0,0,0c0.5,0.6,2.5,2.3,8.1,3.8c3,0.8,7.1,1.4,12.6,1.7
			c-1.6,4-2.4,8.8-2.4,14.3c0,1.2,0.8,2.2,1.9,2.4c0.8,0.2,15.1,3.5,32.6,3.5c7.4,0,15.3-0.6,23.1-2.2c1.1-0.2,1.9-1.2,2-2.3
			c0.1-1,0.9-16,1.6-29.5c0.9,0.1,2.2,0.1,3.6,0.1c5.4,0,13.9-0.8,24.1-4.5c3.2-1.2,6.4-2,9.5-2.6c-1.1,3.4-2.5,8.6-3.2,14.4
			c-0.1,1.1,0.4,2.1,1.4,2.5c0.2,0.1,3.6,1.7,11,1.7c1.5,0,3.1-0.1,4.9-0.2c-4.1,3.9-6.8,8.8-8.2,13.7c-1.5,4.9-1.8,11.1,2,12.3
			c1.8,0.6,7.3,0.8,15.5,0.8c9.5,0,22.5-0.3,37.3-0.7c4.7-0.1,9.1-0.2,12.7-0.3c2.9-0.1,5.4,0,7.6,0.2c14.6,0.6,20.4-0.7,46.2-32.3
			c14.2-17.4,20.6-39.9,18.1-63.3c-0.1-1.1-0.3-2.2-0.4-3.3c30.3-2.3,43.1-37.3,48.1-58.6c7-29.7,2.4-59.6-2-88.6
			c-1.3-8.5-2.6-17.3-3.6-25.9c-5.1-43.6,1.8-76.5,20.6-97.8C683,140.4,683.1,139,682.3,138.1z M392.9,70.6
			c8.1,2.3,14.8,6,20.2,11.1c8.3,7.9,12.5,18.2,15.9,29.2c-2.6-1.1-5.3-1.7-7.8-1.8c-5.7-0.3-11.3,4.2-15.2,8.4
			c-1.3,1.4-2.5,2.8-3.4,4c0.1,0,0.2,0.1,0.3,0.1c-0.1,0-0.3,0.1-0.5,0.2c-3.3,1.2-19.5,6.2-45.3,3.3c-4.5-0.5-9.4-1.3-14.5-2.3
			c-0.1,0-0.2,0-0.3,0l-0.9-0.2c-0.7-0.1-1.6-0.4-2.6-0.6c-2-0.5-4-1-6.1-1.5c0-0.1,0.1-0.1,0.1-0.2c0.4-0.6,1.1-2,2.4-3.9
			c1.1-1.7,2.6-3.9,4.4-6.3c9.2-12.5,27.1-32.4,52.2-38.7C392.2,71.2,392.6,70.9,392.9,70.6z M337.5,104.2
			c5.5-12.4,14.7-21.5,27.5-27.1c1.3-0.6,2.6-1.1,3.8-1.5C354.9,83.9,344.4,95.3,337.5,104.2z M306.7,111.2
			c0.1-7.6,3.5-39.3,52.1-43.1c6.5-0.5,12.6-0.5,18.1-0.2c-4.2,0.9-8.9,2.3-13.8,4.4c-12.4,5.4-27.8,16.8-33.9,40.5
			c-0.5,1.8-0.9,3.7-1.2,5.7c0.1,0,0.1,0,0.2,0.1c-0.1,0-0.1,0-0.2,0.1c0,0.1,0,0.1,0,0.2c0,0,0,0.1,0,0.1c-0.1,0-0.2-0.1-0.4-0.1
			c-2.3-0.7-4.7-1.5-7.1-2.3C316,115.1,311.4,113.3,306.7,111.2L306.7,111.2z M286.1,127.3c-3-0.5-6.6-1-7.8-1.6
			c0.6-1.8,6.4-9.2,25.5-10.1c3.6,1.6,7.2,3,10.6,4.3c2.2,0.8,4.3,1.5,6.4,2.2c0.8,0.3,1.5,0.5,2.3,0.8c0.8,0.2,1.5,0.5,2.3,0.7
			c0.8,0.2,1.5,0.5,2.2,0.7c0.7,0.2,1.3,0.4,2,0.6c0.1,0,0.2,0,0.3,0.1c0.7,0.2,1.4,0.4,2,0.6c2,0.5,4,1,6,1.5
			c0.1,0,0.3,0.1,0.4,0.1c0,0,0,0,0.1,0c0.1,0,0.2,0,0.3,0.1h0c0,0,0.1,0,0.1,0c0,0,0,0,0.1,0c0,0,0.1,0,0.1,0c0,0,0,0,0,0h0
			c0.4,0.1,0.8,0.2,1.1,0.2c0.1,0,0.2,0.1,0.4,0.1l0.9,0.2c4.7,0.9,13.4,2.6,23.7,3.2c7.2,0.5,15.2,0.5,23-0.6
			c-6,4.8-17.1,11-34.1,11.1h-0.9c-20.8,0-34.8-5-45.1-8.6c-0.9-0.3-1.8-0.6-2.6-0.9c-2-0.7-3.8-1.3-5.6-1.8
			c-0.7-0.2-1.4-0.4-2.1-0.6C293.4,128.4,289.3,127.8,286.1,127.3z M367.3,480.9c-2.4-0.6-3.8-1.2-4.7-1.7c-0.2-0.1-0.3-0.2-0.4-0.2
			c0-3.3,0.5-6,1.6-8.1c0.6-1.2,1.4-2.2,2.4-3c0.5-0.4,1-0.7,1.5-1c6-3.1,15.1-0.4,15.2-0.4c1.3,0.4,2.7-0.3,3.1-1.6
			c0.4-1.3-0.3-2.7-1.6-3.1c-0.2-0.1-2.3-0.7-5.2-1.1l-5.5-18.9c5.6,4,12.3,8.3,20.1,13c1.8,7.5,3.6,14.6,4.9,18.8
			c-4.4,0.3-9,1.5-12.9,4.3c-1.8,1.3-3.3,2.8-4.5,4.5C374.7,482.3,370.3,481.6,367.3,480.9z M476.5,479.6c0.9-6.1,2.6-11.4,3.5-13.8
			c7.9-0.9,14.4-0.3,16.8-0.1c3.7,4.7,7.8,8.2,11.7,10.7c-3.1,0.2-5.9,0.8-8.5,1.6C487,481.2,479.5,480.3,476.5,479.6z M597.6,475.6
			c-25.4,31.2-29.9,31-42.1,30.4c-2.3-0.1-4.9-0.2-7.9-0.2c-3.6,0.1-8,0.2-12.8,0.3c-17.1,0.4-45.2,1.1-50.6,0.2
			c-0.5-2.1,0.5-9.1,5.6-15.4c2.5-3.1,6.1-6.1,11.3-7.9c0,0,0,0,0.1,0c0.2,0,0.3-0.1,0.5-0.2c5-1.6,11.3-2.1,19.4-0.3
			c2.3,0.7,3.8,1,4,1c1.3,0.2,2.6-0.6,2.8-1.9c0.3-1.3-0.5-2.6-1.8-2.9c-1.2-0.3-2.3-0.6-3.5-0.9c-0.5-0.2-1-0.3-1.6-0.5
			c-0.3-0.1-0.7-0.2-1.1-0.4c-0.2-0.1-0.4-0.2-0.6-0.2c0,0-0.1,0-0.2-0.1c-0.2-0.1-0.5-0.2-0.8-0.3c-0.6-0.3-1.3-0.6-2-0.9
			c-0.3-0.2-0.7-0.3-1-0.5c-0.4-0.2-0.7-0.4-1.1-0.6c-0.1,0-0.1-0.1-0.2-0.1c-0.3-0.2-0.6-0.3-0.9-0.5c-0.3-0.2-0.7-0.4-1-0.6
			c-0.6-0.4-1.1-0.7-1.7-1.1c-0.2-0.1-0.4-0.3-0.7-0.5c-1.1-0.8-2.3-1.7-3.4-2.6c-0.4-0.4-0.8-0.7-1.2-1.1c-0.7-0.6-1.3-1.2-2-1.9
			c-0.2-0.2-0.4-0.4-0.6-0.7c-0.2-0.2-0.3-0.3-0.4-0.5c-0.3-0.3-0.5-0.6-0.8-0.9c-0.8-0.9-1.5-1.9-2.2-2.9
			c-9.8-13.8-12.4-33.3-7.9-58c0.2-1.4-0.7-2.7-2-2.9c-1.4-0.2-2.7,0.7-2.9,2c-4.4,24.3-2.1,44,6.8,58.7c-6.6-0.4-18.3-0.2-29.9,4.1
			c-12.2,4.4-21.8,4.4-25.7,4.1c0.3-6.9,0.6-12.8,0.7-15.3c0-1.4-1-2.5-2.4-2.6c-1.4,0-2.5,1.1-2.6,2.4c-0.2,6.7-1.9,39.4-2.4,47.7
			c-20.8,3.9-43,0.1-49.6-1.2c0.3-8.4,2.8-14.3,7.5-17.7c9.3-6.7,24.5-1.7,24.6-1.6c1.3,0.4,2.7-0.2,3.2-1.6
			c0.5-1.3-0.2-2.7-1.5-3.2c-0.4-0.1-5-1.7-10.9-2.1c-1.3-3.5-3.4-12-5.6-21c-3.3-13.8-6.5-28.9-6.6-29.1c-0.3-1.3-1.6-2.2-3-1.9
			c-1.4,0.3-2.2,1.6-1.9,3c0.2,0.9,2.6,11.8,5.3,23.5c-42.9-26.3-44.9-38.9-49.1-65.3l-0.5-3c-3.4-21,14-59.7,25.5-85.2
			c4.6-10.3,8.3-18.5,9.4-22.8c3.1-12.5,1.1-30.7,0.3-36.6c15.5-7.3,31.9-20.2,47.7-42c0.8-1.1,0.6-2.7-0.6-3.5
			c-1.1-0.8-2.7-0.5-3.5,0.6c-15.6,21.7-31.9,34.2-47.1,41c-0.2,0.1-0.4,0.1-0.6,0.3c-20.1,8.9-38.1,8-49.9,5.6
			c-24.3-5-42.1-20.1-44.7-31.3c-0.7-3.2-1.2-6.3-1.5-9.6c-3.4-4.4-4.4-8.9-4.4-10c-0.1-1.3,0.2-6,5.2-10c0.8-4.6,2-9.2,3.7-13.5
			c1.3-3.4,2.9-6.6,4.7-9.7c-0.3-1.5-0.3-3.1-0.1-4.7c0.8-6.3,5.1-11,9.8-10.5c0.6,0.1,1.2,0.3,1.8,0.5c0.9-0.9,1.8-1.8,2.8-2.6
			c1.7,0.5,3.5,1.2,5.4,1.9c8.5,3,19.5,6.9,34.7,8.3c2.3-2.2,5.2-3.3,8.2-3c2.5,0.3,4.6,1.6,6.2,3.5c25.9-0.7,38.7-14.2,41.6-17.8
			c1.6-0.4,3-0.7,4.1-1.1c0.1,0,0.1,0.1,0.2,0.1c1.1,0.8,2.7,0.5,3.5-0.7c0.3-0.4,0.7-1,1.1-1.5c0,0,0.1-0.1,0.1-0.1
			c3.1-4.2,9.7-11.5,14.8-11.2c0.2,0,0.4,0,0.6,0c0.2,0,0.4,0,0.6,0.1c0.2,0,0.4,0.1,0.6,0.1c0.2,0,0.4,0.1,0.7,0.1
			c0.2,0,0.4,0.1,0.6,0.1c0.2,0,0.4,0.1,0.7,0.2c0.2,0.1,0.4,0.1,0.7,0.2c0.2,0.1,0.5,0.2,0.7,0.2c0.2,0.1,0.5,0.2,0.7,0.3
			c0.8,0.3,1.5,0.6,2.3,1c0.4,0.2,0.8,0.4,1.2,0.7c0.3,0.2,0.6,0.4,0.9,0.5c0.1,0.1,0.2,0.1,0.3,0.2c0.1,0.1,0.2,0.2,0.3,0.2
			c0,0,0,0,0,0c0,0,0,0,0,0c0.3,0.2,0.5,0.4,0.8,0.6c0,0,0.1,0,0.1,0.1c0.2,0.1,0.3,0.3,0.5,0.4c0.3,0.2,0.6,0.5,0.9,0.8
			c0.2,0.2,0.3,0.3,0.5,0.5c0.3,0.3,0.6,0.6,0.9,1c0.2,0.2,0.3,0.3,0.4,0.5c0.1,0.1,0.2,0.2,0.3,0.4c0.2,0.2,0.3,0.4,0.5,0.6
			c0.2,0.3,0.4,0.5,0.6,0.8c0.2,0.3,0.4,0.7,0.6,1c0.1,0.2,0.2,0.4,0.3,0.6c0.2,0.4,0.4,0.8,0.6,1.2c0.1,0.1,0.1,0.2,0.2,0.4
			c0,0.1,0.1,0.2,0.1,0.3c0.1,0.2,0.2,0.5,0.3,0.7c0,0,0,0.1,0,0.1c0.2,0.4,0.3,0.8,0.5,1.2c0.1,0.2,0.2,0.5,0.2,0.8
			c0.1,0.3,0.2,0.5,0.3,0.8c0.3,0.9,0.5,1.8,0.7,2.8c0.1,0.5,0.2,0.9,0.2,1.4c2.2,13.5-2.1,15.7-3.7,16.5l-0.2,0.1
			c-0.1,0-0.2,0.1-0.2,0.1c-0.2,0.1-0.4,0.2-0.6,0.2c-0.1,0-0.2,0.1-0.3,0.1c-0.2,0.1-0.3,0.2-0.5,0.2c-0.2,0.1-0.4,0.2-0.6,0.2
			c-0.1,0-0.3,0.1-0.4,0.2c-0.4,0.1-0.7,0.2-1.1,0.4c-0.3,0.1-0.6,0.2-0.8,0.3c-0.1,0-0.2,0.1-0.4,0.1c-0.2,0-0.3,0.1-0.5,0.1
			c-0.3,0.1-0.7,0.2-1.1,0.3c-0.3,0.1-0.7,0.2-1.1,0.2c-0.4,0.1-0.9,0.2-1.3,0.3c-0.9,0.2-1.8,0.3-2.7,0.4c-0.3,0-0.6,0.1-0.9,0.1
			c-0.8,0.1-1.6,0.2-2.4,0.2c0,0,0,0,0,0c-0.1,0-0.2,0-0.3,0h-0.2c-1.3,0-2.6,0-3.8-0.2c-1.4-0.2-2.6,0.8-2.8,2.1
			c-0.2,1.4,0.8,2.6,2.1,2.8c1.2,0.2,2.4,0.2,3.7,0.2c2.7,3.4,12.4,16.4,16.1,30.6c3.2,12.6,6.9,46.9,10.1,77.1
			c1.2,11,2.3,21.3,3.3,30.2c4,34.9,15.6,50.6,37.5,51.1c5.5,0.1,12.3-1.2,20-2.7c20.7-4.1,49.1-9.6,74.4,10.4
			c17.9,14.1,29.6,35.8,32.2,59.3C617,438,611,459.2,597.6,475.6z M424.1,155.9c-0.2-0.2-0.5-0.4-0.7-0.6
			C423.6,155.5,423.9,155.6,424.1,155.9z"/>
		<path d="M355.5,146.3c-1.6-1.9-3.8-3.2-6.2-3.5c-3-0.4-5.9,0.8-8.2,3c-2.3,2.2-4,5.5-4.4,9.2c-0.9,7.5,3.3,14.1,9.3,14.9
			c6.1,0.7,11.7-4.7,12.7-12.2C359.1,153.2,357.8,149.1,355.5,146.3z M355.3,157.5c-0.2,0.9-1.1,1.5-2.1,1.4c-0.1,0-0.2,0-0.2,0
			c-1-0.3-1.6-1.3-1.4-2.3c1.4-5.4-1.7-6.7-2.3-6.9c-1-0.3-1.5-1.3-1.3-2.3c0.1-0.4,0.4-0.8,0.8-1c0.4-0.3,1-0.4,1.6-0.2
			c0,0,0.3,0.1,0.7,0.3C352.9,147.1,357.2,150,355.3,157.5z"/>
		<path class="st1" d="M355.3,157.5c-0.2,0.9-1.1,1.5-2.1,1.4c-0.1,0-0.2,0-0.2,0c-1-0.3-1.6-1.3-1.4-2.3c1.4-5.4-1.7-6.7-2.3-6.9
			c-1-0.3-1.5-1.3-1.3-2.3c0.1-0.4,0.4-0.8,0.8-1c0.4-0.3,1-0.4,1.6-0.2c0,0,0.3,0.1,0.7,0.3C352.9,147.1,357.2,150,355.3,157.5z"/>
		<path d="M298.2,138.2c-0.6-0.2-1.2-0.4-1.8-0.5c-4.6-0.6-9,4.1-9.8,10.5c-0.2,1.7-0.1,3.3,0.1,4.7c0.8,4.2,3.4,7.4,6.8,7.8
			c4.6,0.6,9-4.1,9.8-10.5C304,144.7,301.8,139.8,298.2,138.2z M301.2,149.2c-0.1,0.9-0.9,1.5-1.8,1.5c-0.1,0-0.2,0-0.2,0
			c-1-0.2-1.6-1.1-1.4-2c0.9-5.2-2.1-6.2-2.7-6.3c-0.2,0-0.3-0.1-0.4-0.2c-0.7-0.4-1.1-1.1-0.9-1.9c0.2-1,1.1-1.6,2.1-1.4
			c0,0,0.6,0.1,1.4,0.5C299,140.3,302.3,142.8,301.2,149.2z"/>
		<path class="st1" d="M301.2,149.2c-0.1,0.9-0.9,1.5-1.8,1.5c-0.1,0-0.2,0-0.2,0c-1-0.2-1.6-1.1-1.4-2c0.9-5.2-2.1-6.2-2.7-6.3
			c-0.2,0-0.3-0.1-0.4-0.2c-0.7-0.4-1.1-1.1-0.9-1.9c0.2-1,1.1-1.6,2.1-1.4c0,0,0.6,0.1,1.4,0.5C299,140.3,302.3,142.8,301.2,149.2z
			"/>
		<path d="M332.5,180.3c-4.6-7.2-18.7-10.2-27.6-10.4c-14.3-0.2-22.2,2.7-26.5,6.2c-5,4-5.3,8.7-5.2,10c0.1,1.2,1,5.7,4.4,10
			c2.8,3.5,7.2,7,14.1,8.5c1,0.1,1.9,0.3,2.8,0.5c0.4,3.9,2,10.5,7.8,18.8c0.5,0.7,1.3,1.1,2.1,1.1c0.5,0,1-0.2,1.4-0.5
			c1.1-0.8,1.4-2.3,0.6-3.5c-4.8-6.9-6.3-12.3-6.8-15.6c15.7,0.6,25.7-5.4,29.5-8.3C333.3,194,337.1,187.4,332.5,180.3z
			 M327.4,186.8c-0.5,0.6-1.2,0.9-1.9,0.9c-0.7,0-1.3-0.2-1.9-0.7c-0.1-0.1-7.8-6.8-19.2-6.8c-12.2,0-20.6,2.4-21.7,3.1
			c-1.2,0.8-2.9,0.4-3.7-0.9s-0.4-2.9,0.9-3.6c2.3-1.4,11.8-3.9,24.5-3.9c13.3,0,22.3,7.8,22.6,8.1
			C328.3,184,328.4,185.7,327.4,186.8z"/>
		<path d="M278.3,176.1c-5,4-5.3,8.7-5.2,10c0.1,1.2,1,5.7,4.4,10C276.9,189.5,277.2,182.7,278.3,176.1z"/>
		<path class="st1" d="M327.4,186.8c-0.5,0.6-1.2,0.9-1.9,0.9c-0.7,0-1.3-0.2-1.9-0.7c-0.1-0.1-7.8-6.8-19.2-6.8
			c-12.2,0-20.6,2.4-21.7,3.1c-1.2,0.8-2.9,0.4-3.7-0.9s-0.4-2.9,0.9-3.6c2.3-1.4,11.8-3.9,24.5-3.9c13.3,0,22.3,7.8,22.6,8.1
			C328.3,184,328.4,185.7,327.4,186.8z"/>
		<path d="M302.3,224c0.5,0.7,1.3,1.1,2.1,1.1c0.5,0,1-0.1,1.4-0.4c1.1-0.8,1.4-2.3,0.6-3.5c-4.8-6.9-6.3-12.3-6.8-15.6
			c-0.3-2.2-0.2-3.5-0.1-3.6c0.2-1.3-0.6-2.6-2-2.9c-1.3-0.3-2.7,0.6-2.9,2c0,0.1-0.3,1.6,0,4C294.9,209.1,296.6,215.7,302.3,224z"
			/>
		<path class="st0" d="M662.4,352.4c6.7-28.7,2.3-58.2-2.1-86.7c-1.3-8.5-2.6-17.4-3.7-26.1c-4.5-38.3,0.1-68.8,13.7-90.8
			C642,169.1,623,201.8,619.8,237c-1.8,19.5,4.4,37.4,10.9,56.3l1.1,3.2c0.9,2.6,1.9,5.3,2.9,8.2c5.4,14.9,11.6,31.8,8.4,47.3
			c-4.9,23.6-23.1,38.2-28.8,42.3c1.4,4.2,2.5,8.5,3.3,12.9C645.6,405.9,657.7,372.5,662.4,352.4z"/>
		<g>
			<path d="M439.3,128c0.2,0.4,0.3,0.8,0.5,1.2c-0.1-0.3-0.2-0.7-0.4-1C439.4,128.2,439.3,128.1,439.3,128z M432.4,118.7
				c0.2,0.1,0.4,0.3,0.6,0.5c-0.2-0.1-0.3-0.3-0.5-0.4C432.5,118.8,432.5,118.7,432.4,118.7z M422,155C422.1,155,422.1,155,422,155
				c0,0-0.1,0-0.2,0H422z"/>
			<path d="M402.8,121.6c-0.1,0-0.3,0.1-0.5,0.2c0.1-0.1,0.1-0.2,0.2-0.3C402.6,121.5,402.7,121.6,402.8,121.6z"/>
			<path d="M342.3,122.7l-0.9-0.2c-0.7-0.1-1.6-0.4-2.6-0.6C339.9,122.2,341.1,122.5,342.3,122.7z"/>
			<path d="M365,130.9c-7.4-0.4-15.7-1.5-24.9-3.5c0.1,0,0.2,0.1,0.4,0.1l0.9,0.2C346.1,128.5,354.8,130.2,365,130.9z"/>
			<path d="M328,118.8c0,0.1,0,0.1,0,0.2c0,0,0,0.1,0,0.1c-0.1,0-0.2-0.1-0.4-0.1C327.7,118.9,327.9,118.8,328,118.8z"/>
			<path d="M357,125.1c-4.5-0.5-9.4-1.3-14.5-2.3C345.8,123.4,350.9,124.3,357,125.1z"/>
			<path d="M328.2,118.7c-0.1,0-0.1,0-0.2,0.1c0,0,0-0.1,0-0.1C328.1,118.7,328.1,118.7,328.2,118.7z"/>
		</g>
	</g>
</g>
</svg>
